<mxfile host="Electron" modified="2023-09-12T16:37:12.334Z" agent="Mozilla/5.0 (Windows NT 10.0; Win64; x64) AppleWebKit/537.36 (KHTML, like Gecko) draw.io/21.6.8 Chrome/114.0.5735.289 Electron/25.5.0 Safari/537.36" etag="tC8IiX6w7YWey3L3BTZx" version="21.6.8" type="device">
  <diagram id="R2lEEEUBdFMjLlhIrx00" name="Page-1">
    <mxGraphModel dx="1036" dy="606" grid="1" gridSize="10" guides="1" tooltips="1" connect="1" arrows="1" fold="1" page="1" pageScale="1" pageWidth="850" pageHeight="1100" math="0" shadow="0" extFonts="Permanent Marker^https://fonts.googleapis.com/css?family=Permanent+Marker">
      <root>
        <mxCell id="0" />
        <mxCell id="1" parent="0" />
        <mxCell id="Ztl2JxR4utSnuoe1GZWt-1" value="" style="swimlane;startSize=0;" parent="1" vertex="1">
          <mxGeometry x="120" y="90" width="510" height="560" as="geometry" />
        </mxCell>
        <mxCell id="Ztl2JxR4utSnuoe1GZWt-2" value="System" style="text;html=1;align=center;verticalAlign=middle;resizable=0;points=[];autosize=1;strokeColor=none;fillColor=none;" parent="Ztl2JxR4utSnuoe1GZWt-1" vertex="1">
          <mxGeometry x="170" width="60" height="30" as="geometry" />
        </mxCell>
        <mxCell id="Ztl2JxR4utSnuoe1GZWt-13" value="Login" style="ellipse;whiteSpace=wrap;html=1;" parent="Ztl2JxR4utSnuoe1GZWt-1" vertex="1">
          <mxGeometry x="200" y="20" width="165" height="70" as="geometry" />
        </mxCell>
        <mxCell id="Sy0lSBUSxKibYKUIRIQN-21" style="edgeStyle=orthogonalEdgeStyle;rounded=0;orthogonalLoop=1;jettySize=auto;html=1;entryX=0.058;entryY=0.769;entryDx=0;entryDy=0;entryPerimeter=0;dashed=1;" edge="1" parent="Ztl2JxR4utSnuoe1GZWt-1" source="Ztl2JxR4utSnuoe1GZWt-16" target="Ztl2JxR4utSnuoe1GZWt-13">
          <mxGeometry relative="1" as="geometry" />
        </mxCell>
        <mxCell id="Sy0lSBUSxKibYKUIRIQN-22" value="&amp;lt;&amp;lt; extends &amp;gt;&amp;gt;" style="edgeLabel;html=1;align=center;verticalAlign=middle;resizable=0;points=[];" vertex="1" connectable="0" parent="Sy0lSBUSxKibYKUIRIQN-21">
          <mxGeometry x="-0.5403" y="1" relative="1" as="geometry">
            <mxPoint as="offset" />
          </mxGeometry>
        </mxCell>
        <mxCell id="Ztl2JxR4utSnuoe1GZWt-16" value="Store&lt;br&gt;New&lt;br&gt;&amp;nbsp;Podcasts" style="ellipse;whiteSpace=wrap;html=1;" parent="Ztl2JxR4utSnuoe1GZWt-1" vertex="1">
          <mxGeometry x="20" y="100" width="70" height="60" as="geometry" />
        </mxCell>
        <mxCell id="Sy0lSBUSxKibYKUIRIQN-27" style="edgeStyle=orthogonalEdgeStyle;rounded=0;orthogonalLoop=1;jettySize=auto;html=1;entryX=0.223;entryY=0.94;entryDx=0;entryDy=0;entryPerimeter=0;dashed=1;" edge="1" parent="Ztl2JxR4utSnuoe1GZWt-1" source="Ztl2JxR4utSnuoe1GZWt-19" target="Ztl2JxR4utSnuoe1GZWt-13">
          <mxGeometry relative="1" as="geometry" />
        </mxCell>
        <mxCell id="Sy0lSBUSxKibYKUIRIQN-29" value="&amp;lt;&amp;lt; extends &amp;gt;&amp;gt;" style="edgeLabel;html=1;align=center;verticalAlign=middle;resizable=0;points=[];" vertex="1" connectable="0" parent="Sy0lSBUSxKibYKUIRIQN-27">
          <mxGeometry x="0.3289" relative="1" as="geometry">
            <mxPoint as="offset" />
          </mxGeometry>
        </mxCell>
        <mxCell id="Ztl2JxR4utSnuoe1GZWt-19" value="View Podcasts" style="ellipse;whiteSpace=wrap;html=1;" parent="Ztl2JxR4utSnuoe1GZWt-1" vertex="1">
          <mxGeometry x="10" y="170" width="160" height="120" as="geometry" />
        </mxCell>
        <mxCell id="Sy0lSBUSxKibYKUIRIQN-23" style="edgeStyle=orthogonalEdgeStyle;rounded=0;orthogonalLoop=1;jettySize=auto;html=1;entryX=0;entryY=1;entryDx=0;entryDy=0;dashed=1;" edge="1" parent="Ztl2JxR4utSnuoe1GZWt-1" source="Ztl2JxR4utSnuoe1GZWt-22" target="Ztl2JxR4utSnuoe1GZWt-19">
          <mxGeometry relative="1" as="geometry" />
        </mxCell>
        <mxCell id="Sy0lSBUSxKibYKUIRIQN-24" value="&amp;lt;&amp;lt; extends &amp;gt;&amp;gt;" style="edgeLabel;html=1;align=center;verticalAlign=middle;resizable=0;points=[];" vertex="1" connectable="0" parent="Sy0lSBUSxKibYKUIRIQN-23">
          <mxGeometry x="-0.4932" y="-3" relative="1" as="geometry">
            <mxPoint as="offset" />
          </mxGeometry>
        </mxCell>
        <mxCell id="Ztl2JxR4utSnuoe1GZWt-22" value="Edit Podcasts" style="ellipse;whiteSpace=wrap;html=1;" parent="Ztl2JxR4utSnuoe1GZWt-1" vertex="1">
          <mxGeometry x="5" y="420" width="120" height="80" as="geometry" />
        </mxCell>
        <mxCell id="Sy0lSBUSxKibYKUIRIQN-25" style="edgeStyle=orthogonalEdgeStyle;rounded=0;orthogonalLoop=1;jettySize=auto;html=1;dashed=1;" edge="1" parent="Ztl2JxR4utSnuoe1GZWt-1" source="Ztl2JxR4utSnuoe1GZWt-25" target="Ztl2JxR4utSnuoe1GZWt-19">
          <mxGeometry relative="1" as="geometry" />
        </mxCell>
        <mxCell id="Sy0lSBUSxKibYKUIRIQN-26" value="&amp;lt;&amp;lt; extends &amp;gt;&amp;gt;" style="edgeLabel;html=1;align=center;verticalAlign=middle;resizable=0;points=[];" vertex="1" connectable="0" parent="Sy0lSBUSxKibYKUIRIQN-25">
          <mxGeometry x="0.1717" y="1" relative="1" as="geometry">
            <mxPoint as="offset" />
          </mxGeometry>
        </mxCell>
        <mxCell id="Ztl2JxR4utSnuoe1GZWt-25" value="Delete Podcasts" style="ellipse;whiteSpace=wrap;html=1;" parent="Ztl2JxR4utSnuoe1GZWt-1" vertex="1">
          <mxGeometry x="140" y="420" width="120" height="80" as="geometry" />
        </mxCell>
        <mxCell id="Sy0lSBUSxKibYKUIRIQN-31" style="edgeStyle=orthogonalEdgeStyle;rounded=0;orthogonalLoop=1;jettySize=auto;html=1;entryX=1;entryY=1;entryDx=0;entryDy=0;dashed=1;" edge="1" parent="Ztl2JxR4utSnuoe1GZWt-1" source="Sy0lSBUSxKibYKUIRIQN-2" target="Ztl2JxR4utSnuoe1GZWt-19">
          <mxGeometry relative="1" as="geometry" />
        </mxCell>
        <mxCell id="Sy0lSBUSxKibYKUIRIQN-33" value="&amp;lt;&amp;lt; extends &amp;gt;&amp;gt;" style="edgeLabel;html=1;align=center;verticalAlign=middle;resizable=0;points=[];" vertex="1" connectable="0" parent="Sy0lSBUSxKibYKUIRIQN-31">
          <mxGeometry x="-0.4698" y="1" relative="1" as="geometry">
            <mxPoint as="offset" />
          </mxGeometry>
        </mxCell>
        <mxCell id="Sy0lSBUSxKibYKUIRIQN-2" value="Put on Social Media" style="ellipse;whiteSpace=wrap;html=1;" vertex="1" parent="Ztl2JxR4utSnuoe1GZWt-1">
          <mxGeometry x="360" y="240" width="120" height="80" as="geometry" />
        </mxCell>
        <mxCell id="Ztl2JxR4utSnuoe1GZWt-15" style="edgeStyle=orthogonalEdgeStyle;rounded=0;orthogonalLoop=1;jettySize=auto;html=1;entryX=0;entryY=0.5;entryDx=0;entryDy=0;endArrow=none;endFill=0;" parent="Ztl2JxR4utSnuoe1GZWt-1" source="Ztl2JxR4utSnuoe1GZWt-3" target="Ztl2JxR4utSnuoe1GZWt-13" edge="1">
          <mxGeometry relative="1" as="geometry">
            <Array as="points">
              <mxPoint x="-65" y="55" />
            </Array>
          </mxGeometry>
        </mxCell>
        <mxCell id="Ztl2JxR4utSnuoe1GZWt-3" value="Podcaster" style="shape=umlActor;verticalLabelPosition=bottom;verticalAlign=top;html=1;outlineConnect=0;" parent="1" vertex="1">
          <mxGeometry x="40" y="250" width="30" height="60" as="geometry" />
        </mxCell>
        <mxCell id="Sy0lSBUSxKibYKUIRIQN-8" style="edgeStyle=orthogonalEdgeStyle;rounded=0;orthogonalLoop=1;jettySize=auto;html=1;" edge="1" parent="1" source="Ztl2JxR4utSnuoe1GZWt-4">
          <mxGeometry relative="1" as="geometry">
            <mxPoint x="55" y="340" as="targetPoint" />
          </mxGeometry>
        </mxCell>
        <mxCell id="Ztl2JxR4utSnuoe1GZWt-4" value="Podcast Manager" style="shape=umlActor;verticalLabelPosition=bottom;verticalAlign=top;html=1;outlineConnect=0;" parent="1" vertex="1">
          <mxGeometry x="40" y="370" width="30" height="60" as="geometry" />
        </mxCell>
      </root>
    </mxGraphModel>
  </diagram>
</mxfile>
